<svg id="Layer_1" data-name="Layer 1" xmlns="http://www.w3.org/2000/svg" xmlns:xlink="http://www.w3.org/1999/xlink" viewBox="0 0 61.68 8966.58"><defs><style>.cls-1{font-size:0.6px;}.cls-1,.cls-4,.cls-8,.cls-9{fill:#fff;}.cls-1,.cls-4{font-family:RobotoCondensed-Regular, Roboto Condensed;}.cls-2,.cls-3,.cls-7{fill:none;}.cls-2{stroke:#cbcbcb;stroke-linejoin:round;opacity:0.3;}.cls-2,.cls-7{stroke-width:0.1px;}.cls-4,.cls-9{font-size:1px;}.cls-5{fill:#ec407a;}.cls-6{fill:url(#linear-gradient);}.cls-7{stroke:#fff;stroke-miterlimit:10;}.cls-9{font-family:PTSerif-Regular, PT Serif;}.cls-10{letter-spacing:-0.04em;}.cls-11{letter-spacing:-0.04em;}.cls-12{fill:#bbdefb;}</style><linearGradient id="linear-gradient" x1="19.44" y1="1.25" x2="19.44" y2="8966.58" gradientUnits="userSpaceOnUse"><stop offset="0" stop-color="#ec407a"/><stop offset="1" stop-color="#e9002d"/></linearGradient></defs><title>CITES_edit</title><text class="cls-1" transform="translate(4.49 0.81) rotate(-0.3)">1977</text><text class="cls-1" transform="translate(5.93 0.8) rotate(-0.3)">1978</text><text class="cls-1" transform="translate(7.36 0.8) rotate(-0.3)">1979</text><text class="cls-1" transform="translate(8.79 0.79) rotate(-0.3)">1980</text><text class="cls-1" transform="translate(10.22 0.78) rotate(-0.3)">1981</text><text class="cls-1" transform="translate(11.66 0.77) rotate(-0.3)">1982</text><text class="cls-1" transform="translate(13.09 0.77) rotate(-0.3)">1983</text><text class="cls-1" transform="translate(14.52 0.76) rotate(-0.3)">1984</text><text class="cls-1" transform="translate(15.95 0.75) rotate(-0.3)">1985</text><text class="cls-1" transform="translate(17.38 0.74) rotate(-0.3)">1986</text><text class="cls-1" transform="translate(18.82 0.74) rotate(-0.3)">1987</text><text class="cls-1" transform="translate(20.25 0.73) rotate(-0.3)">1988</text><text class="cls-1" transform="translate(21.68 0.72) rotate(-0.3)">1989</text><text class="cls-1" transform="translate(23.11 0.71) rotate(-0.3)">1990</text><text class="cls-1" transform="translate(24.55 0.71) rotate(-0.3)">1991</text><text class="cls-1" transform="translate(25.98 0.7) rotate(-0.3)">1992</text><text class="cls-1" transform="translate(27.41 0.69) rotate(-0.3)">1993</text><text class="cls-1" transform="translate(28.84 0.68) rotate(-0.3)">1994</text><text class="cls-1" transform="translate(30.27 0.68) rotate(-0.3)">1995</text><text class="cls-1" transform="translate(31.71 0.67) rotate(-0.3)">1996</text><text class="cls-1" transform="translate(33.14 0.66) rotate(-0.3)">1997</text><text class="cls-1" transform="translate(34.57 0.65) rotate(-0.3)">1998</text><text class="cls-1" transform="translate(36 0.65) rotate(-0.3)">1999</text><text class="cls-1" transform="translate(37.43 0.64) rotate(-0.3)">2000</text><text class="cls-1" transform="translate(38.87 0.63) rotate(-0.3)">2001</text><text class="cls-1" transform="translate(40.3 0.62) rotate(-0.3)">2002</text><text class="cls-1" transform="translate(41.73 0.62) rotate(-0.3)">2003</text><text class="cls-1" transform="translate(43.16 0.61) rotate(-0.3)">2004</text><text class="cls-1" transform="translate(44.59 0.6) rotate(-0.3)">2005</text><text class="cls-1" transform="translate(46.03 0.59) rotate(-0.3)">2006</text><text class="cls-1" transform="translate(47.46 0.59) rotate(-0.3)">2007</text><text class="cls-1" transform="translate(48.89 0.58) rotate(-0.3)">2008</text><text class="cls-1" transform="translate(50.32 0.57) rotate(-0.3)">2009</text><text class="cls-1" transform="translate(51.75 0.56) rotate(-0.3)">2010</text><text class="cls-1" transform="translate(53.19 0.56) rotate(-0.3)">2011</text><text class="cls-1" transform="translate(54.62 0.55) rotate(-0.3)">2012</text><text class="cls-1" transform="translate(56.05 0.54) rotate(-0.3)">2013</text><text class="cls-1" transform="translate(57.48 0.53) rotate(-0.3)">2014</text><text class="cls-1" transform="translate(58.92 0.53) rotate(-0.3)">2015</text><text class="cls-1" transform="translate(60.35 0.52) rotate(-0.3)">2016</text><line class="cls-2" x1="4.4" y1="1.25" x2="61.68" y2="1.25"/><rect class="cls-3" x="4.4" y="1.25" width="57.29" height="8587.86"/><text class="cls-4" transform="translate(2.35 1.61)">0 kg</text><line class="cls-2" x1="4.4" y1="86.15" x2="61.68" y2="86.15"/><rect class="cls-3" x="4.4" y="1.25" width="57.29" height="8587.86"/><text class="cls-4" transform="translate(1.18 86.48)">10,000</text><line class="cls-2" x1="4.4" y1="425.77" x2="61.68" y2="425.77"/><rect class="cls-3" x="4.4" y="1.25" width="57.29" height="8587.86"/><text class="cls-4" transform="translate(1.18 426.1)">50,000</text><line class="cls-2" x1="4.4" y1="850.3" x2="61.68" y2="850.3"/><rect class="cls-3" x="4.4" y="1.25" width="57.29" height="8587.86"/><text class="cls-4" transform="translate(0.69 850.63)">100,000</text><line class="cls-2" x1="4.4" y1="1699.36" x2="61.68" y2="1699.36"/><rect class="cls-3" x="4.4" y="1.25" width="57.29" height="8587.86"/><text class="cls-4" transform="translate(0.69 1699.68)">200,000</text><line class="cls-2" x1="4.4" y1="8491.79" x2="61.68" y2="8491.79"/><rect class="cls-3" x="4.4" y="1.25" width="57.29" height="8587.86"/><text class="cls-4" transform="translate(0 8492.12)">1,000,000</text><rect class="cls-5" x="4.76" y="1.25" width="0.72" height="49.79"/><rect class="cls-3" x="4.4" y="1.25" width="57.29" height="8587.86"/><rect class="cls-5" x="6.19" y="1.25" width="0.72" height="31.07"/><rect class="cls-3" x="4.4" y="1.25" width="57.29" height="8587.86"/><rect class="cls-5" x="7.62" y="1.25" width="0.72" height="239.28"/><rect class="cls-3" x="4.4" y="1.25" width="57.29" height="8587.86"/><rect class="cls-5" x="9.05" y="1.25" width="0.72" height="219.14"/><rect class="cls-3" x="4.4" y="1.25" width="57.29" height="8587.86"/><rect class="cls-5" x="10.48" y="1.25" width="0.72" height="938.91"/><rect class="cls-3" x="4.4" y="1.25" width="57.29" height="8587.86"/><rect class="cls-5" x="11.92" y="1.25" width="0.72" height="1583.56"/><rect class="cls-3" x="4.4" y="1.25" width="57.29" height="8587.86"/><rect class="cls-5" x="13.35" y="1.25" width="0.72" height="4234.32"/><rect class="cls-3" x="4.4" y="1.25" width="57.29" height="8587.86"/><rect class="cls-5" x="14.78" y="1.25" width="0.72" height="692.92"/><rect class="cls-3" x="4.4" y="1.25" width="57.29" height="8587.86"/><rect class="cls-5" x="16.21" y="1.25" width="0.72" height="3684.31"/><rect class="cls-3" x="4.4" y="1.25" width="57.29" height="8587.86"/><rect class="cls-5" x="17.65" y="1.25" width="0.72" height="4570.09"/><rect class="cls-3" x="4.4" y="1.25" width="57.29" height="8587.86"/><rect class="cls-6" x="19.08" y="1.25" width="0.72" height="8965.34"/><rect class="cls-3" x="4.4" y="1.25" width="57.29" height="8587.86"/><rect class="cls-5" x="20.51" y="1.25" width="0.72" height="390.55"/><rect class="cls-3" x="4.4" y="1.25" width="57.29" height="8587.86"/><rect class="cls-5" x="21.94" y="1.25" width="0.72" height="702.33"/><rect class="cls-3" x="4.4" y="1.25" width="57.29" height="8587.86"/><rect class="cls-5" x="23.37" y="1.25" width="0.72" height="267.16"/><rect class="cls-3" x="4.4" y="1.25" width="57.29" height="8587.86"/><rect class="cls-5" x="24.81" y="1.25" width="0.72" height="218.87"/><rect class="cls-3" x="4.4" y="1.25" width="57.29" height="8587.86"/><rect class="cls-5" x="26.24" y="1.25" width="0.72" height="5.53"/><rect class="cls-3" x="4.4" y="1.25" width="57.29" height="8587.86"/><rect class="cls-5" x="27.67" y="1.25" width="0.72" height="1.92"/><rect class="cls-3" x="4.4" y="1.25" width="57.29" height="8587.86"/><rect class="cls-5" x="29.1" y="1.25" width="0.72" height="5.73"/><rect class="cls-3" x="4.4" y="1.25" width="57.29" height="8587.86"/><rect class="cls-5" x="30.53" y="1.25" width="0.72" height="0.91"/><rect class="cls-3" x="4.4" y="1.25" width="57.29" height="8587.86"/><rect class="cls-5" x="31.97" y="1.25" width="0.72" height="9.06"/><rect class="cls-3" x="4.4" y="1.25" width="57.29" height="8587.86"/><rect class="cls-5" x="33.4" y="1.25" width="0.72" height="2.43"/><rect class="cls-3" x="4.4" y="1.25" width="57.29" height="8587.86"/><rect class="cls-5" x="34.83" y="1.25" width="0.72" height="4.78"/><rect class="cls-3" x="4.4" y="1.25" width="57.29" height="8587.86"/><rect class="cls-5" x="36.26" y="1.25" width="0.72" height="2.49"/><rect class="cls-3" x="4.4" y="1.25" width="57.29" height="8587.86"/><rect class="cls-5" x="37.7" y="1.25" width="0.72" height="3.42"/><rect class="cls-3" x="4.4" y="1.25" width="57.29" height="8587.86"/><rect class="cls-5" x="39.13" y="1.25" width="0.72" height="2.36"/><rect class="cls-3" x="4.4" y="1.25" width="57.29" height="8587.86"/><rect class="cls-5" x="40.56" y="1.25" width="0.72" height="3.37"/><rect class="cls-3" x="4.4" y="1.25" width="57.29" height="8587.86"/><rect class="cls-5" x="41.99" y="1.25" width="0.72" height="6.72"/><rect class="cls-3" x="4.4" y="1.25" width="57.29" height="8587.86"/><rect class="cls-5" x="43.42" y="1.25" width="0.72" height="8.79"/><rect class="cls-3" x="4.4" y="1.25" width="57.29" height="8587.86"/><rect class="cls-5" x="44.86" y="1.25" width="0.72" height="11.98"/><rect class="cls-3" x="4.4" y="1.25" width="57.29" height="8587.86"/><rect class="cls-5" x="46.29" y="1.25" width="0.72" height="3.13"/><rect class="cls-3" x="4.4" y="1.25" width="57.29" height="8587.86"/><rect class="cls-5" x="47.72" y="1.25" width="0.72" height="5.71"/><rect class="cls-3" x="4.4" y="1.25" width="57.29" height="8587.86"/><rect class="cls-5" x="49.15" y="1.25" width="0.72" height="5.1"/><rect class="cls-3" x="4.4" y="1.25" width="57.29" height="8587.86"/><rect class="cls-5" x="50.58" y="1.25" width="0.72" height="1.06"/><rect class="cls-3" x="4.4" y="1.25" width="57.29" height="8587.86"/><rect class="cls-5" x="52.02" y="1.25" width="0.72" height="0.25"/><rect class="cls-3" x="4.4" y="1.25" width="57.29" height="8587.86"/><rect class="cls-5" x="53.45" y="1.25" width="0.72" height="27.68"/><rect class="cls-3" x="4.4" y="1.25" width="57.29" height="8587.86"/><rect class="cls-5" x="54.88" y="1.25" width="0.72" height="27.61"/><rect class="cls-3" x="4.4" y="1.25" width="57.29" height="8587.86"/><rect class="cls-5" x="56.31" y="1.25" width="0.72" height="30.27"/><rect class="cls-3" x="4.4" y="1.25" width="57.29" height="8587.86"/><rect class="cls-5" x="57.75" y="1.25" width="0.72" height="73.61"/><rect class="cls-5" x="59.18" y="1.25" width="0.72" height="2.13"/><rect class="cls-5" x="60.61" y="1.25" width="0.72" height="2.24"/><path class="cls-3" d="M75.08,32a3.49,3.49,0,0,1,3.45-3.54" transform="translate(-40.39 -5.13)"/><path class="cls-3" d="M85.25,18.36c0,3.28-2.22,5.94-5,5.94" transform="translate(-40.39 -5.13)"/><path class="cls-7" d="M85.62,18.6c0,4-1.63,7.4-3.76,7.93" transform="translate(-40.39 -5.13)"/><path class="cls-8" d="M81.26,26.6A2.87,2.87,0,0,0,82,26l-.1.49.24.45A3.19,3.19,0,0,0,81.26,26.6Z" transform="translate(-40.39 -5.13)"/><text class="cls-9" transform="translate(28.93 21.88)">This bar represents about <tspan x="0" y="1.25">1410.7 kilograms of ivor</tspan><tspan class="cls-10" x="10.69" y="1.25">y.</tspan><tspan x="11.4" y="1.25" xml:space="preserve"> The </tspan><tspan x="0" y="2.5">common limit of checked-in </tspan><tspan x="0" y="3.75">baggages is 50 pounds</tspan><tspan class="cls-11" x="9.87" y="3.75">,</tspan><tspan x="10.12" y="3.75" xml:space="preserve"> or </tspan><tspan x="0" y="5">almost 23 kg</tspan><tspan class="cls-11" x="5.62" y="5">.</tspan><tspan x="5.86" y="5" xml:space="preserve"> This pile of ivory </tspan><tspan x="0" y="6.25">weighs a little more than 62 of </tspan><tspan x="0" y="7.5">such suitcases</tspan><tspan class="cls-11" x="6.32" y="7.5">.</tspan></text><path class="cls-12" d="M70.7,36.7h-1V35.54h1Z" transform="translate(-40.39 -5.13)"/><path class="cls-12" d="M69.47,36.7h0a.16.16,0,0,1-.13-.14v-.84a.17.17,0,0,1,.11-.16h.18v1.14h-.14Z" transform="translate(-40.39 -5.13)"/><path class="cls-12" d="M70.76,36.7h0V35.55h.12a.19.19,0,0,1,.17.15h0v.84h0a.17.17,0,0,1-.13.14h-.16Z" transform="translate(-40.39 -5.13)"/><path class="cls-12" d="M70.44,35.53h-.08v-.09h0a.05.05,0,0,0,0,0h-.26a0,0,0,0,0,0,0v.09h-.09v-.08a.13.13,0,0,1,.13-.13h.27a.13.13,0,0,1,.12.11v.11Z" transform="translate(-40.39 -5.13)"/><path class="cls-12" d="M72.78,36.7h-1V35.54h1Z" transform="translate(-40.39 -5.13)"/><path class="cls-12" d="M71.55,36.7h0a.17.17,0,0,1-.13-.14v-.84a.17.17,0,0,1,.11-.16h.18v1.14h-.14Z" transform="translate(-40.39 -5.13)"/><path class="cls-12" d="M72.84,36.7h0V35.55H73a.18.18,0,0,1,.17.15h0v.84h0a.17.17,0,0,1-.13.14h-.16Z" transform="translate(-40.39 -5.13)"/><path class="cls-12" d="M72.53,35.53h-.09v-.09h0s0,0,0,0h-.27a0,0,0,0,0,0,0v.09H72a.21.21,0,0,1,0-.08.12.12,0,0,1,.12-.13h.27a.12.12,0,0,1,.12.11v0A.28.28,0,0,1,72.53,35.53Z" transform="translate(-40.39 -5.13)"/><path class="cls-12" d="M74.87,36.7h-1V35.54h1Z" transform="translate(-40.39 -5.13)"/><path class="cls-12" d="M73.63,36.7h0a.17.17,0,0,1-.13-.14v-.84a.18.18,0,0,1,.12-.16h.17v1.14h-.14Z" transform="translate(-40.39 -5.13)"/><path class="cls-12" d="M74.92,36.7h0V35.55h.13a.17.17,0,0,1,.16.15h0v.84h0a.16.16,0,0,1-.13.14h-.16Z" transform="translate(-40.39 -5.13)"/><path class="cls-12" d="M74.61,35.53h-.09v-.09h0s0,0,0,0h-.26a0,0,0,0,0,0,0v.09h-.08v-.08a.13.13,0,0,1,.12-.13h.27a.14.14,0,0,1,.13.11v.11Z" transform="translate(-40.39 -5.13)"/><path class="cls-12" d="M77,36.7h-1V35.54h1Z" transform="translate(-40.39 -5.13)"/><path class="cls-12" d="M75.72,36.7h0a.16.16,0,0,1-.12-.14,0,0,0,0,1,0,0v-.81a.18.18,0,0,1,.12-.16h.17v1.14h-.13Z" transform="translate(-40.39 -5.13)"/><path class="cls-12" d="M77,36.7h0V35.55h.12a.17.17,0,0,1,.16.15h0v.84h0a.16.16,0,0,1-.13.14H77Z" transform="translate(-40.39 -5.13)"/><path class="cls-12" d="M76.69,35.53H76.6v-.09h0s0,0,0,0H76.3a0,0,0,0,0,0,0v.09h-.09v-.08a.13.13,0,0,1,.13-.13h.26a.14.14,0,0,1,.13.11v.11Z" transform="translate(-40.39 -5.13)"/><path class="cls-12" d="M79,36.7H78V35.54h1Z" transform="translate(-40.39 -5.13)"/><path class="cls-12" d="M77.8,36.7h0a.16.16,0,0,1-.13-.14v-.84a.18.18,0,0,1,.12-.16h.17v1.14H77.8Z" transform="translate(-40.39 -5.13)"/><path class="cls-12" d="M79.09,36.7h0V35.55h.12a.17.17,0,0,1,.16.15h0v.84h0a.16.16,0,0,1-.12.14h-.16Z" transform="translate(-40.39 -5.13)"/><path class="cls-12" d="M78.77,35.53h-.09v-.09h0s0,0,0,0h-.26a0,0,0,0,0,0,0v.09h-.09v-.08a.13.13,0,0,1,.13-.13h.26a.13.13,0,0,1,.13.11v.11Z" transform="translate(-40.39 -5.13)"/><path class="cls-12" d="M81.11,36.7h-1V35.54h1Z" transform="translate(-40.39 -5.13)"/><path class="cls-12" d="M79.88,36.7h0a.16.16,0,0,1-.13-.14v-.84a.17.17,0,0,1,.11-.16H80v1.14h-.13Z" transform="translate(-40.39 -5.13)"/><path class="cls-12" d="M81.17,36.7h0V35.55h.12a.19.19,0,0,1,.17.15h0v.84h0a.17.17,0,0,1-.13.14h-.16Z" transform="translate(-40.39 -5.13)"/><path class="cls-12" d="M80.85,35.53h-.08v-.09h0s0,0,0,0h-.26a0,0,0,0,0,0,0v.09h-.09v-.08a.13.13,0,0,1,.13-.13h.26a.13.13,0,0,1,.13.11v.11Z" transform="translate(-40.39 -5.13)"/><path class="cls-12" d="M70.7,38.28h-1V37.12h1Z" transform="translate(-40.39 -5.13)"/><path class="cls-12" d="M69.47,38.28h0a.16.16,0,0,1-.13-.13V37.3a.18.18,0,0,1,.11-.17h.18v1.14h-.14Z" transform="translate(-40.39 -5.13)"/><path class="cls-12" d="M70.76,38.28h0V37.13h.12a.19.19,0,0,1,.17.15h0v.86a.17.17,0,0,1-.13.13h-.16Z" transform="translate(-40.39 -5.13)"/><path class="cls-12" d="M70.44,37.11h-.08V37a.05.05,0,0,0,0,0h-.26a0,0,0,0,0,0,0v.09h-.09V37a.13.13,0,0,1,.13-.13h.27a.13.13,0,0,1,.12.12v.1Z" transform="translate(-40.39 -5.13)"/><path class="cls-12" d="M72.78,38.28h-1V37.12h1Z" transform="translate(-40.39 -5.13)"/><path class="cls-12" d="M71.55,38.28h0a.17.17,0,0,1-.13-.13V37.3a.18.18,0,0,1,.11-.17h.18v1.14h-.14Z" transform="translate(-40.39 -5.13)"/><path class="cls-12" d="M72.84,38.28h0V37.13H73a.18.18,0,0,1,.17.15h0v.86a.17.17,0,0,1-.13.13h-.16Z" transform="translate(-40.39 -5.13)"/><path class="cls-12" d="M72.53,37.11h-.09V37s0,0,0,0h-.27a0,0,0,0,0,0,0v.09H72A.27.27,0,0,1,72,37a.12.12,0,0,1,.12-.13h.27a.12.12,0,0,1,.12.12v0A.19.19,0,0,1,72.53,37.11Z" transform="translate(-40.39 -5.13)"/><path class="cls-12" d="M74.87,38.28h-1V37.12h1Z" transform="translate(-40.39 -5.13)"/><path class="cls-12" d="M73.63,38.28h0a.17.17,0,0,1-.13-.13V37.3a.18.18,0,0,1,.12-.17h.17v1.14h-.14Z" transform="translate(-40.39 -5.13)"/><path class="cls-12" d="M74.92,38.28h0V37.13h.13a.17.17,0,0,1,.16.15h0v.86a.16.16,0,0,1-.13.13h-.16Z" transform="translate(-40.39 -5.13)"/><path class="cls-12" d="M74.61,37.11h-.09V37s0,0,0,0h-.26a0,0,0,0,0,0,0v.09h-.08V37a.13.13,0,0,1,.12-.13h.27a.14.14,0,0,1,.13.12v.1Z" transform="translate(-40.39 -5.13)"/><path class="cls-12" d="M77,38.28h-1V37.12h1Z" transform="translate(-40.39 -5.13)"/><path class="cls-12" d="M75.72,38.28h0a.16.16,0,0,1-.12-.13,0,0,0,0,1,0,0V37.3a.18.18,0,0,1,.12-.17h.17v1.14h-.13Z" transform="translate(-40.39 -5.13)"/><path class="cls-12" d="M77,38.28h0V37.13h.12a.17.17,0,0,1,.16.15h0v.86a.16.16,0,0,1-.13.13H77Z" transform="translate(-40.39 -5.13)"/><path class="cls-12" d="M76.69,37.11H76.6V37s0,0,0,0H76.3a0,0,0,0,0,0,0v.09h-.09V37a.13.13,0,0,1,.13-.13h.26a.14.14,0,0,1,.13.12v.1Z" transform="translate(-40.39 -5.13)"/><path class="cls-12" d="M79,38.28H78V37.12h1Z" transform="translate(-40.39 -5.13)"/><path class="cls-12" d="M77.8,38.28h0a.16.16,0,0,1-.13-.13V37.3a.18.18,0,0,1,.12-.17h.17v1.14H77.8Z" transform="translate(-40.39 -5.13)"/><path class="cls-12" d="M79.09,38.28h0V37.13h.12a.17.17,0,0,1,.16.15h0v.86a.16.16,0,0,1-.12.13h-.16Z" transform="translate(-40.39 -5.13)"/><path class="cls-12" d="M78.77,37.11h-.09V37s0,0,0,0h-.26a0,0,0,0,0,0,0v.09h-.09V37a.13.13,0,0,1,.13-.13h.26a.13.13,0,0,1,.13.12v.1Z" transform="translate(-40.39 -5.13)"/><path class="cls-12" d="M81.11,38.28h-1V37.12h1Z" transform="translate(-40.39 -5.13)"/><path class="cls-12" d="M79.88,38.28h0a.16.16,0,0,1-.13-.13V37.3a.18.18,0,0,1,.11-.17H80v1.14h-.13Z" transform="translate(-40.39 -5.13)"/><path class="cls-12" d="M81.17,38.28h0V37.13h.12a.19.19,0,0,1,.17.15h0v.86a.17.17,0,0,1-.13.13h-.16Z" transform="translate(-40.39 -5.13)"/><path class="cls-12" d="M80.85,37.11h-.08V37s0,0,0,0h-.26a0,0,0,0,0,0,0v.09h-.09V37a.13.13,0,0,1,.13-.13h.26a.13.13,0,0,1,.13.12v.1Z" transform="translate(-40.39 -5.13)"/><path class="cls-12" d="M70.7,39.86h-1V38.7h1Z" transform="translate(-40.39 -5.13)"/><path class="cls-12" d="M69.47,39.86h0a.16.16,0,0,1-.13-.13v-.84a.18.18,0,0,1,.11-.17h.18v1.14h-.14Z" transform="translate(-40.39 -5.13)"/><path class="cls-12" d="M70.76,39.86h0V38.71h.12a.2.2,0,0,1,.17.15h0v.86a.17.17,0,0,1-.13.13h-.16Z" transform="translate(-40.39 -5.13)"/><path class="cls-12" d="M70.44,38.69h-.08v-.1a.05.05,0,0,0,0,0h-.26a0,0,0,0,0,0,0v.09h-.09V38.6a.13.13,0,0,1,.13-.13h.27a.13.13,0,0,1,.12.12v.1Z" transform="translate(-40.39 -5.13)"/><path class="cls-12" d="M72.78,39.86h-1V38.7h1Z" transform="translate(-40.39 -5.13)"/><path class="cls-12" d="M71.55,39.86h0a.17.17,0,0,1-.13-.13v-.84a.18.18,0,0,1,.11-.17h.18v1.14h-.14Z" transform="translate(-40.39 -5.13)"/><path class="cls-12" d="M72.84,39.86h0V38.71H73a.19.19,0,0,1,.17.15h0v.86a.17.17,0,0,1-.13.13h-.16Z" transform="translate(-40.39 -5.13)"/><path class="cls-12" d="M72.53,38.69h-.09v-.1s0,0,0,0h-.27a0,0,0,0,0,0,0v.09H72a.27.27,0,0,1,0-.09.12.12,0,0,1,.12-.13h.27a.12.12,0,0,1,.12.12v0A.19.19,0,0,1,72.53,38.69Z" transform="translate(-40.39 -5.13)"/><path class="cls-12" d="M74.87,39.86h-1V38.7h1Z" transform="translate(-40.39 -5.13)"/><path class="cls-12" d="M73.63,39.86h0a.17.17,0,0,1-.13-.13v-.84a.18.18,0,0,1,.12-.17h.17v1.14h-.14Z" transform="translate(-40.39 -5.13)"/><path class="cls-12" d="M74.92,39.86h0V38.71h.13a.18.18,0,0,1,.16.15h0v.86a.16.16,0,0,1-.13.13h-.16Z" transform="translate(-40.39 -5.13)"/><path class="cls-12" d="M74.61,38.69h-.09v-.1s0,0,0,0h-.26a0,0,0,0,0,0,0v.09h-.08V38.6a.13.13,0,0,1,.12-.13h.27a.14.14,0,0,1,.13.12v.1Z" transform="translate(-40.39 -5.13)"/><path class="cls-12" d="M77,39.86h-1V38.7h1Z" transform="translate(-40.39 -5.13)"/><path class="cls-12" d="M75.72,39.86h0a.16.16,0,0,1-.12-.13,0,0,0,0,1,0,0v-.81a.18.18,0,0,1,.12-.17h.17v1.14h-.13Z" transform="translate(-40.39 -5.13)"/><path class="cls-12" d="M77,39.86h0V38.71h.12a.18.18,0,0,1,.16.15h0v.86a.16.16,0,0,1-.13.13H77Z" transform="translate(-40.39 -5.13)"/><path class="cls-12" d="M76.69,38.69H76.6v-.1s0,0,0,0H76.3a0,0,0,0,0,0,0v.09h-.09V38.6a.13.13,0,0,1,.13-.13h.26a.14.14,0,0,1,.13.12v.1Z" transform="translate(-40.39 -5.13)"/><path class="cls-12" d="M79,39.86H78V38.7h1Z" transform="translate(-40.39 -5.13)"/><path class="cls-12" d="M77.8,39.86h0a.16.16,0,0,1-.13-.13s0,0,0,0v-.81a.18.18,0,0,1,.12-.17h.17v1.14H77.8Z" transform="translate(-40.39 -5.13)"/><path class="cls-12" d="M79.09,39.86h0V38.71h.12a.18.18,0,0,1,.16.15h0v.86a.16.16,0,0,1-.12.13h-.16Z" transform="translate(-40.39 -5.13)"/><path class="cls-12" d="M78.77,38.69h-.09v-.1s0,0,0,0h-.26a0,0,0,0,0,0,0v.09h-.09V38.6a.13.13,0,0,1,.13-.13h.26a.13.13,0,0,1,.13.12v.1Z" transform="translate(-40.39 -5.13)"/><path class="cls-12" d="M81.11,39.86h-1V38.7h1Z" transform="translate(-40.39 -5.13)"/><path class="cls-12" d="M79.88,39.86h0a.16.16,0,0,1-.13-.13v-.84a.18.18,0,0,1,.11-.17H80v1.14h-.13Z" transform="translate(-40.39 -5.13)"/><path class="cls-12" d="M81.17,39.86h0V38.71h.12a.2.2,0,0,1,.17.15h0v.86a.17.17,0,0,1-.13.13h-.16Z" transform="translate(-40.39 -5.13)"/><path class="cls-12" d="M80.85,38.69h-.08v-.1s0,0,0,0h-.26a0,0,0,0,0,0,0v.09h-.09V38.6a.13.13,0,0,1,.13-.13h.26a.13.13,0,0,1,.13.12v.1Z" transform="translate(-40.39 -5.13)"/><path class="cls-12" d="M70.7,41.44h-1V40.29h1Z" transform="translate(-40.39 -5.13)"/><path class="cls-12" d="M69.47,41.44h0a.16.16,0,0,1-.13-.13v-.84a.18.18,0,0,1,.11-.17h.18v1.14h-.14Z" transform="translate(-40.39 -5.13)"/><path class="cls-12" d="M70.76,41.44h0V40.29h.12a.18.18,0,0,1,.17.14h0v.85h0a.17.17,0,0,1-.13.13h-.16Z" transform="translate(-40.39 -5.13)"/><path class="cls-12" d="M70.44,40.27h-.08v-.1a.05.05,0,0,0,0,0h-.26a0,0,0,0,0,0,0v.09h-.09v-.09a.13.13,0,0,1,.13-.13h.27a.13.13,0,0,1,.12.12v.1Z" transform="translate(-40.39 -5.13)"/><path class="cls-12" d="M72.78,41.44h-1V40.29h1Z" transform="translate(-40.39 -5.13)"/><path class="cls-12" d="M71.55,41.44h0a.17.17,0,0,1-.13-.13v-.84a.18.18,0,0,1,.11-.17h.18v1.14h-.14Z" transform="translate(-40.39 -5.13)"/><path class="cls-12" d="M72.84,41.44h0V40.29H73a.17.17,0,0,1,.17.14h0v.85h0a.17.17,0,0,1-.13.13h-.16Z" transform="translate(-40.39 -5.13)"/><path class="cls-12" d="M72.53,40.27h-.09v-.1s0,0,0,0h-.27a0,0,0,0,0,0,0v.09H72a.27.27,0,0,1,0-.09.12.12,0,0,1,.12-.13h.27a.12.12,0,0,1,.12.12v0A.19.19,0,0,1,72.53,40.27Z" transform="translate(-40.39 -5.13)"/><path class="cls-12" d="M74.87,41.44h-1V40.29h1Z" transform="translate(-40.39 -5.13)"/><path class="cls-12" d="M73.63,41.44h0a.17.17,0,0,1-.13-.13v-.84a.18.18,0,0,1,.12-.17h.17v1.14h-.14Z" transform="translate(-40.39 -5.13)"/><path class="cls-12" d="M74.92,41.44h0V40.29h.13a.16.16,0,0,1,.16.14h0v.85h0a.16.16,0,0,1-.13.13h-.16Z" transform="translate(-40.39 -5.13)"/><path class="cls-12" d="M74.61,40.27h-.09v-.1s0,0,0,0h-.26a0,0,0,0,0,0,0v.09h-.08v-.09a.13.13,0,0,1,.12-.13h.27a.14.14,0,0,1,.13.12v.1Z" transform="translate(-40.39 -5.13)"/><path class="cls-12" d="M77,41.44h-1V40.29h1Z" transform="translate(-40.39 -5.13)"/><path class="cls-12" d="M75.72,41.44h0a.16.16,0,0,1-.12-.13,0,0,0,0,1,0,0v-.81a.18.18,0,0,1,.12-.17h.17v1.14h-.13Z" transform="translate(-40.39 -5.13)"/><path class="cls-12" d="M77,41.44h0V40.29h.12a.16.16,0,0,1,.16.14h0v.85h0a.16.16,0,0,1-.13.13H77Z" transform="translate(-40.39 -5.13)"/><path class="cls-12" d="M76.69,40.27H76.6v-.1s0,0,0,0H76.3a0,0,0,0,0,0,0v.09h-.09v-.09a.13.13,0,0,1,.13-.13h.26a.14.14,0,0,1,.13.12v.1Z" transform="translate(-40.39 -5.13)"/><path class="cls-12" d="M79,41.44H78V40.29h1Z" transform="translate(-40.39 -5.13)"/><path class="cls-12" d="M77.8,41.44h0a.16.16,0,0,1-.13-.13v-.84a.18.18,0,0,1,.12-.17h.17v1.14H77.8Z" transform="translate(-40.39 -5.13)"/><path class="cls-12" d="M79.09,41.44h0V40.29h.12a.16.16,0,0,1,.16.14h0v.85h0a.16.16,0,0,1-.12.13h-.16Z" transform="translate(-40.39 -5.13)"/><path class="cls-12" d="M78.77,40.27h-.09v-.1s0,0,0,0h-.26a0,0,0,0,0,0,0v.09h-.09v-.09a.13.13,0,0,1,.13-.13h.26a.13.13,0,0,1,.13.12v.1Z" transform="translate(-40.39 -5.13)"/><path class="cls-12" d="M81.11,41.44h-1V40.29h1Z" transform="translate(-40.39 -5.13)"/><path class="cls-12" d="M79.88,41.44h0a.16.16,0,0,1-.13-.13v-.84a.18.18,0,0,1,.11-.17H80v1.14h-.13Z" transform="translate(-40.39 -5.13)"/><path class="cls-12" d="M81.17,41.44h0V40.29h.12a.18.18,0,0,1,.17.14h0v.85h0a.17.17,0,0,1-.13.13h-.16Z" transform="translate(-40.39 -5.13)"/><path class="cls-12" d="M80.85,40.27h-.08v-.1s0,0,0,0h-.26a0,0,0,0,0,0,0v.09h-.09v-.09a.13.13,0,0,1,.13-.13h.26a.13.13,0,0,1,.13.12v.1Z" transform="translate(-40.39 -5.13)"/><path class="cls-12" d="M70.7,43h-1V41.87h1Z" transform="translate(-40.39 -5.13)"/><path class="cls-12" d="M69.47,43h0a.18.18,0,0,1-.13-.14V42a.15.15,0,0,1,.11-.16h.18V43h-.14Z" transform="translate(-40.39 -5.13)"/><path class="cls-12" d="M70.76,43h0V41.87h.12a.18.18,0,0,1,.17.14h0v.85h0a.2.2,0,0,1-.13.14h-.16Z" transform="translate(-40.39 -5.13)"/><path class="cls-12" d="M70.44,41.85h-.08v-.08h0a.07.07,0,0,0,0,0h-.26a0,0,0,0,0,0,0v.09h-.09v-.09a.13.13,0,0,1,.13-.13h.27a.13.13,0,0,1,.12.12v.1Z" transform="translate(-40.39 -5.13)"/><path class="cls-12" d="M72.78,43h-1V41.87h1Z" transform="translate(-40.39 -5.13)"/><path class="cls-12" d="M71.55,43h0a.2.2,0,0,1-.13-.14V42a.15.15,0,0,1,.11-.16h.18V43h-.14Z" transform="translate(-40.39 -5.13)"/><path class="cls-12" d="M72.84,43h0V41.87H73a.17.17,0,0,1,.17.14h0v.85h0A.2.2,0,0,1,73,43h-.16Z" transform="translate(-40.39 -5.13)"/><path class="cls-12" d="M72.53,41.85h-.09v-.08h0s0,0,0,0h-.27a0,0,0,0,0,0,0v.09H72a.27.27,0,0,1,0-.09.12.12,0,0,1,.12-.13h.27a.12.12,0,0,1,.12.12v0A.22.22,0,0,1,72.53,41.85Z" transform="translate(-40.39 -5.13)"/><path class="cls-12" d="M74.87,43h-1V41.87h1Z" transform="translate(-40.39 -5.13)"/><path class="cls-12" d="M73.63,43h0a.2.2,0,0,1-.13-.14V42a.16.16,0,0,1,.12-.16h.17V43h-.14Z" transform="translate(-40.39 -5.13)"/><path class="cls-12" d="M74.92,43h0V41.87h.13a.16.16,0,0,1,.16.14h0v.85h0a.18.18,0,0,1-.13.14h-.16Z" transform="translate(-40.39 -5.13)"/><path class="cls-12" d="M74.61,41.85h-.09v-.08h0s0,0,0,0h-.26a0,0,0,0,0,0,0v.09h-.08v-.09a.13.13,0,0,1,.12-.13h.27a.14.14,0,0,1,.13.12v.1Z" transform="translate(-40.39 -5.13)"/><path class="cls-12" d="M77,43h-1V41.87h1Z" transform="translate(-40.39 -5.13)"/><path class="cls-12" d="M75.72,43h0a.19.19,0,0,1-.12-.14,0,0,0,0,1,0,0V42a.16.16,0,0,1,.12-.16h.17V43h-.13Z" transform="translate(-40.39 -5.13)"/><path class="cls-12" d="M77,43h0V41.87h.12a.16.16,0,0,1,.16.14h0v.85h0a.18.18,0,0,1-.13.14H77Z" transform="translate(-40.39 -5.13)"/><path class="cls-12" d="M76.69,41.85H76.6v-.08h0a0,0,0,0,0,0,0H76.3a0,0,0,0,0,0,0v.09h-.09v-.09a.13.13,0,0,1,.13-.13h.26a.14.14,0,0,1,.13.12v.1Z" transform="translate(-40.39 -5.13)"/><path class="cls-12" d="M79,43H78V41.87h1Z" transform="translate(-40.39 -5.13)"/><path class="cls-12" d="M77.8,43h0a.18.18,0,0,1-.13-.14s0,0,0,0V42a.16.16,0,0,1,.12-.16h.17V43H77.8Z" transform="translate(-40.39 -5.13)"/><path class="cls-12" d="M79.09,43h0V41.87h.12a.16.16,0,0,1,.16.14h0v.85h0a.19.19,0,0,1-.12.14h-.16Z" transform="translate(-40.39 -5.13)"/><path class="cls-12" d="M78.77,41.85h-.09v-.08h0a0,0,0,0,0,0,0h-.26a0,0,0,0,0,0,0v.09h-.09v-.09a.13.13,0,0,1,.13-.13h.26a.13.13,0,0,1,.13.12v.1Z" transform="translate(-40.39 -5.13)"/><path class="cls-12" d="M81.11,43h-1V41.87h1Z" transform="translate(-40.39 -5.13)"/><path class="cls-12" d="M79.88,43h0a.18.18,0,0,1-.13-.14V42a.15.15,0,0,1,.11-.16H80V43h-.13Z" transform="translate(-40.39 -5.13)"/><path class="cls-12" d="M81.17,43h0V41.87h.12a.18.18,0,0,1,.17.14h0v.85h0a.2.2,0,0,1-.13.14h-.16Z" transform="translate(-40.39 -5.13)"/><path class="cls-12" d="M80.85,41.85h-.08v-.08h0a0,0,0,0,0,0,0h-.26a0,0,0,0,0,0,0v.09h-.09v-.09a.13.13,0,0,1,.13-.13h.26a.13.13,0,0,1,.13.12v.1Z" transform="translate(-40.39 -5.13)"/><path class="cls-12" d="M70.7,44.6h-1V43.45h1Z" transform="translate(-40.39 -5.13)"/><path class="cls-12" d="M69.47,44.6h0a.18.18,0,0,1-.13-.14v-.84a.16.16,0,0,1,.11-.16h.18V44.6h-.14Z" transform="translate(-40.39 -5.13)"/><path class="cls-12" d="M70.76,44.6h0V43.45h.12a.18.18,0,0,1,.17.14h0v.85h0a.2.2,0,0,1-.13.14h-.16Z" transform="translate(-40.39 -5.13)"/><path class="cls-12" d="M70.44,43.43h-.08v-.08h0a.07.07,0,0,0,0,0h-.26a0,0,0,0,0,0,0v.09h-.09v-.09a.12.12,0,0,1,.13-.12h.27a.13.13,0,0,1,.12.11v.1Z" transform="translate(-40.39 -5.13)"/><path class="cls-12" d="M72.78,44.6h-1V43.45h1Z" transform="translate(-40.39 -5.13)"/><path class="cls-12" d="M71.55,44.6h0a.2.2,0,0,1-.13-.14v-.84a.16.16,0,0,1,.11-.16h.18V44.6h-.14Z" transform="translate(-40.39 -5.13)"/><path class="cls-12" d="M72.84,44.6h0V43.45H73a.17.17,0,0,1,.17.14h0v.85h0a.2.2,0,0,1-.13.14h-.16Z" transform="translate(-40.39 -5.13)"/><path class="cls-12" d="M72.53,43.43h-.09v-.08h0s0,0,0,0h-.27a0,0,0,0,0,0,0v.09H72a.27.27,0,0,1,0-.09.12.12,0,0,1,.12-.12h.27a.12.12,0,0,1,.12.11v0A.22.22,0,0,1,72.53,43.43Z" transform="translate(-40.39 -5.13)"/><path class="cls-12" d="M74.87,44.6h-1V43.45h1Z" transform="translate(-40.39 -5.13)"/><path class="cls-12" d="M73.63,44.6h0a.2.2,0,0,1-.13-.14v-.84a.17.17,0,0,1,.12-.16h.17V44.6h-.14Z" transform="translate(-40.39 -5.13)"/><path class="cls-12" d="M74.92,44.6h0V43.45h.13a.16.16,0,0,1,.16.14h0v.85h0a.18.18,0,0,1-.13.14h-.16Z" transform="translate(-40.39 -5.13)"/><path class="cls-12" d="M74.61,43.43h-.09v-.08h0s0,0,0,0h-.26a0,0,0,0,0,0,0v.09h-.08v-.09a.12.12,0,0,1,.12-.12h.27a.14.14,0,0,1,.13.11v.1Z" transform="translate(-40.39 -5.13)"/><path class="cls-12" d="M77,44.6h-1V43.45h1Z" transform="translate(-40.39 -5.13)"/><path class="cls-12" d="M75.72,44.6h0a.19.19,0,0,1-.12-.14,0,0,0,0,1,0,0v-.81a.17.17,0,0,1,.12-.16h.17V44.6h-.13Z" transform="translate(-40.39 -5.13)"/><path class="cls-12" d="M77,44.6h0V43.45h.12a.16.16,0,0,1,.16.14h0v.85h0a.18.18,0,0,1-.13.14H77Z" transform="translate(-40.39 -5.13)"/><path class="cls-12" d="M76.69,43.43H76.6v-.08h0a0,0,0,0,0,0,0H76.3a0,0,0,0,0,0,0v.09h-.09v-.09a.12.12,0,0,1,.13-.12h.26a.14.14,0,0,1,.13.11v.1Z" transform="translate(-40.39 -5.13)"/><path class="cls-12" d="M79,44.6H78V43.45h1Z" transform="translate(-40.39 -5.13)"/><path class="cls-12" d="M77.8,44.6h0a.18.18,0,0,1-.13-.14v-.84a.17.17,0,0,1,.12-.16h.17V44.6H77.8Z" transform="translate(-40.39 -5.13)"/><path class="cls-12" d="M79.09,44.6h0V43.45h.12a.16.16,0,0,1,.16.14h0v.85h0a.19.19,0,0,1-.12.14h-.16Z" transform="translate(-40.39 -5.13)"/><path class="cls-12" d="M78.77,43.43h-.09v-.08h0a0,0,0,0,0,0,0h-.26a0,0,0,0,0,0,0v.09h-.09v-.09a.12.12,0,0,1,.13-.12h.26a.13.13,0,0,1,.13.11v.1Z" transform="translate(-40.39 -5.13)"/><path class="cls-12" d="M81.11,44.6h-1V43.45h1Z" transform="translate(-40.39 -5.13)"/><path class="cls-12" d="M79.88,44.6h0a.18.18,0,0,1-.13-.14v-.84a.16.16,0,0,1,.11-.16H80V44.6h-.13Z" transform="translate(-40.39 -5.13)"/><path class="cls-12" d="M81.17,44.6h0V43.45h.12a.18.18,0,0,1,.17.14h0v.85h0a.2.2,0,0,1-.13.14h-.16Z" transform="translate(-40.39 -5.13)"/><path class="cls-12" d="M80.85,43.43h-.08v-.08h0a0,0,0,0,0,0,0h-.26a0,0,0,0,0,0,0v.09h-.09v-.09a.12.12,0,0,1,.13-.12h.26a.13.13,0,0,1,.13.11v.1Z" transform="translate(-40.39 -5.13)"/><path class="cls-12" d="M70.7,46.18h-1V45h1Z" transform="translate(-40.39 -5.13)"/><path class="cls-12" d="M69.47,46.18h0a.17.17,0,0,1-.13-.14V45.2a.16.16,0,0,1,.11-.16h.18v1.15h-.14Z" transform="translate(-40.39 -5.13)"/><path class="cls-12" d="M70.76,46.18h0V45h.12a.18.18,0,0,1,.17.14h0V46h0a.19.19,0,0,1-.13.14h-.16Z" transform="translate(-40.39 -5.13)"/><path class="cls-12" d="M70.44,45h-.08v-.08h0a.07.07,0,0,0,0,0h-.26a0,0,0,0,0,0,0V45h-.09v-.09a.12.12,0,0,1,.13-.12h.27a.13.13,0,0,1,.12.11V45Z" transform="translate(-40.39 -5.13)"/><path class="cls-12" d="M72.78,46.18h-1V45h1Z" transform="translate(-40.39 -5.13)"/><path class="cls-12" d="M71.55,46.18h0A.19.19,0,0,1,71.4,46V45.2a.16.16,0,0,1,.11-.16h.18v1.15h-.14Z" transform="translate(-40.39 -5.13)"/><path class="cls-12" d="M72.84,46.18h0V45H73a.17.17,0,0,1,.17.14h0V46h0a.19.19,0,0,1-.13.14h-.16Z" transform="translate(-40.39 -5.13)"/><path class="cls-12" d="M72.53,45h-.09v-.08h0s0,0,0,0h-.27a0,0,0,0,0,0,0V45H72a.27.27,0,0,1,0-.09.12.12,0,0,1,.12-.12h.27a.12.12,0,0,1,.12.11v0A.22.22,0,0,1,72.53,45Z" transform="translate(-40.39 -5.13)"/><path class="cls-12" d="M74.87,46.18h-1V45h1Z" transform="translate(-40.39 -5.13)"/><path class="cls-12" d="M73.63,46.18h0a.19.19,0,0,1-.13-.14V45.2A.17.17,0,0,1,73.6,45h.17v1.15h-.14Z" transform="translate(-40.39 -5.13)"/><path class="cls-12" d="M74.92,46.18h0V45h.13a.16.16,0,0,1,.16.14h0V46h0a.17.17,0,0,1-.13.14h-.16Z" transform="translate(-40.39 -5.13)"/><path class="cls-12" d="M74.61,45h-.09v-.08h0s0,0,0,0h-.26a0,0,0,0,0,0,0V45h-.08v-.09a.12.12,0,0,1,.12-.12h.27a.14.14,0,0,1,.13.11V45Z" transform="translate(-40.39 -5.13)"/><path class="cls-12" d="M77,46.18h-1V45h1Z" transform="translate(-40.39 -5.13)"/><path class="cls-12" d="M75.72,46.18h0a.17.17,0,0,1-.12-.14,0,0,0,0,1,0,0V45.2a.17.17,0,0,1,.12-.16h.17v1.15h-.13Z" transform="translate(-40.39 -5.13)"/><path class="cls-12" d="M77,46.18h0V45h.12a.16.16,0,0,1,.16.14h0V46h0a.17.17,0,0,1-.13.14H77Z" transform="translate(-40.39 -5.13)"/><path class="cls-12" d="M76.69,45H76.6v-.08h0a0,0,0,0,0,0,0H76.3s0,0,0,0V45h-.09v-.09a.12.12,0,0,1,.13-.12h.26a.14.14,0,0,1,.13.11V45Z" transform="translate(-40.39 -5.13)"/><path class="cls-12" d="M79,46.18H78V45h1Z" transform="translate(-40.39 -5.13)"/><path class="cls-12" d="M77.8,46.18h0a.17.17,0,0,1-.13-.14s0,0,0,0V45.2a.17.17,0,0,1,.12-.16h.17v1.15H77.8Z" transform="translate(-40.39 -5.13)"/><path class="cls-12" d="M79.09,46.18h0V45h.12a.16.16,0,0,1,.16.14h0V46h0a.17.17,0,0,1-.12.14h-.16Z" transform="translate(-40.39 -5.13)"/><path class="cls-12" d="M78.77,45h-.09v-.08h0a0,0,0,0,0,0,0h-.26a0,0,0,0,0,0,0V45h-.09v-.09a.12.12,0,0,1,.13-.12h.26a.13.13,0,0,1,.13.11V45Z" transform="translate(-40.39 -5.13)"/><path class="cls-12" d="M81.11,46.18h-1V45h1Z" transform="translate(-40.39 -5.13)"/><path class="cls-12" d="M79.88,46.18h0a.17.17,0,0,1-.13-.14V45.2a.16.16,0,0,1,.11-.16H80v1.15h-.13Z" transform="translate(-40.39 -5.13)"/><path class="cls-12" d="M81.17,46.18h0V45h.12a.18.18,0,0,1,.17.14h0V46h0a.19.19,0,0,1-.13.14h-.16Z" transform="translate(-40.39 -5.13)"/><path class="cls-12" d="M80.85,45h-.08v-.08h0a0,0,0,0,0,0,0h-.26a0,0,0,0,0,0,0V45h-.09v-.09a.12.12,0,0,1,.13-.12h.26a.13.13,0,0,1,.13.11V45Z" transform="translate(-40.39 -5.13)"/><path class="cls-12" d="M70.7,47.76h-1V46.61h1Z" transform="translate(-40.39 -5.13)"/><path class="cls-12" d="M69.47,47.76h0a.17.17,0,0,1-.13-.14v-.84a.16.16,0,0,1,.11-.16h.18v1.14h-.14Z" transform="translate(-40.39 -5.13)"/><path class="cls-12" d="M70.76,47.76h0V46.62h.12a.18.18,0,0,1,.17.14h0v.85h0a.19.19,0,0,1-.13.14h-.16Z" transform="translate(-40.39 -5.13)"/><path class="cls-12" d="M70.44,46.59h-.08v-.08h0a.07.07,0,0,0,0,0h-.26a0,0,0,0,0,0,0v.08h-.09V46.5a.13.13,0,0,1,.13-.12h.27a.13.13,0,0,1,.12.11v.1Z" transform="translate(-40.39 -5.13)"/><path class="cls-12" d="M72.78,47.76h-1V46.61h1Z" transform="translate(-40.39 -5.13)"/><path class="cls-12" d="M71.55,47.76h0a.19.19,0,0,1-.13-.14v-.84a.16.16,0,0,1,.11-.16h.18v1.14h-.14Z" transform="translate(-40.39 -5.13)"/><path class="cls-12" d="M72.84,47.76h0V46.62H73a.17.17,0,0,1,.17.14h0v.85h0a.19.19,0,0,1-.13.14h-.16Z" transform="translate(-40.39 -5.13)"/><path class="cls-12" d="M72.53,46.59h-.09v-.08h0s0,0,0,0h-.27a0,0,0,0,0,0,0v.08H72a.27.27,0,0,1,0-.09.12.12,0,0,1,.12-.12h.27a.12.12,0,0,1,.12.11v0A.25.25,0,0,1,72.53,46.59Z" transform="translate(-40.39 -5.13)"/><path class="cls-12" d="M74.87,47.76h-1V46.61h1Z" transform="translate(-40.39 -5.13)"/><path class="cls-12" d="M73.63,47.76h0a.19.19,0,0,1-.13-.14v-.84a.17.17,0,0,1,.12-.16h.17v1.14h-.14Z" transform="translate(-40.39 -5.13)"/><path class="cls-12" d="M74.92,47.76h0V46.62h.13a.16.16,0,0,1,.16.14h0v.85h0a.17.17,0,0,1-.13.14h-.16Z" transform="translate(-40.39 -5.13)"/><path class="cls-12" d="M74.61,46.59h-.09v-.08h0s0,0,0,0h-.26a0,0,0,0,0,0,0v.08h-.08V46.5a.13.13,0,0,1,.12-.12h.27a.14.14,0,0,1,.13.11v.1Z" transform="translate(-40.39 -5.13)"/><path class="cls-12" d="M77,47.76h-1V46.61h1Z" transform="translate(-40.39 -5.13)"/><path class="cls-12" d="M75.72,47.76h0a.17.17,0,0,1-.12-.14,0,0,0,0,1,0,0v-.81a.17.17,0,0,1,.12-.16h.17v1.14h-.13Z" transform="translate(-40.39 -5.13)"/><path class="cls-12" d="M77,47.76h0V46.62h.12a.16.16,0,0,1,.16.14h0v.85h0a.17.17,0,0,1-.13.14H77Z" transform="translate(-40.39 -5.13)"/><path class="cls-12" d="M76.69,46.59H76.6v-.08h0a0,0,0,0,0,0,0H76.3s0,0,0,0v.08h-.09V46.5a.13.13,0,0,1,.13-.12h.26a.14.14,0,0,1,.13.11v.1Z" transform="translate(-40.39 -5.13)"/><path class="cls-12" d="M79,47.76H78V46.61h1Z" transform="translate(-40.39 -5.13)"/><path class="cls-12" d="M77.8,47.76h0a.17.17,0,0,1-.13-.14v-.84a.17.17,0,0,1,.12-.16h.17v1.14H77.8Z" transform="translate(-40.39 -5.13)"/><path class="cls-12" d="M79.09,47.76h0V46.62h.12a.16.16,0,0,1,.16.14h0v.85h0a.17.17,0,0,1-.12.14h-.16Z" transform="translate(-40.39 -5.13)"/><path class="cls-12" d="M78.77,46.59h-.09v-.08h0a0,0,0,0,0,0,0h-.26a0,0,0,0,0,0,0v.08h-.09V46.5a.13.13,0,0,1,.13-.12h.26a.13.13,0,0,1,.13.11v.1Z" transform="translate(-40.39 -5.13)"/><path class="cls-12" d="M81.11,47.76h-1V46.61h1Z" transform="translate(-40.39 -5.13)"/><path class="cls-12" d="M79.88,47.76h0a.17.17,0,0,1-.13-.14v-.84a.16.16,0,0,1,.11-.16H80v1.14h-.13Z" transform="translate(-40.39 -5.13)"/><path class="cls-12" d="M81.17,47.76h0V46.62h.12a.18.18,0,0,1,.17.14h0v.85h0a.19.19,0,0,1-.13.14h-.16Z" transform="translate(-40.39 -5.13)"/><path class="cls-12" d="M80.85,46.59h-.08v-.08h0a0,0,0,0,0,0,0h-.26a0,0,0,0,0,0,0v.08h-.09V46.5a.13.13,0,0,1,.13-.12h.26a.13.13,0,0,1,.13.11v.1Z" transform="translate(-40.39 -5.13)"/><path class="cls-12" d="M70.7,49.34h-1V48.19h1Z" transform="translate(-40.39 -5.13)"/><path class="cls-12" d="M69.47,49.34h0a.17.17,0,0,1-.13-.14v-.84a.16.16,0,0,1,.11-.16h.18v1.14h-.14Z" transform="translate(-40.39 -5.13)"/><path class="cls-12" d="M70.76,49.34h0V48.2h.12a.18.18,0,0,1,.17.14v.86h0a.19.19,0,0,1-.13.14h-.16Z" transform="translate(-40.39 -5.13)"/><path class="cls-12" d="M70.44,48.17h-.08v-.08h0a.05.05,0,0,0,0,0h-.26a0,0,0,0,0,0,0v.08h-.09v-.09a.13.13,0,0,1,.13-.12h.27a.13.13,0,0,1,.12.11v.1Z" transform="translate(-40.39 -5.13)"/><path class="cls-12" d="M72.78,49.34h-1V48.19h1Z" transform="translate(-40.39 -5.13)"/><path class="cls-12" d="M71.55,49.34h0a.19.19,0,0,1-.13-.14v-.84a.16.16,0,0,1,.11-.16h.18v1.14h-.14Z" transform="translate(-40.39 -5.13)"/><path class="cls-12" d="M72.84,49.34h0V48.2H73a.17.17,0,0,1,.17.14v.86h0a.19.19,0,0,1-.13.14h-.16Z" transform="translate(-40.39 -5.13)"/><path class="cls-12" d="M72.53,48.17h-.09v-.08h0s0,0,0,0h-.27a0,0,0,0,0,0,0v.08H72a.27.27,0,0,1,0-.09.12.12,0,0,1,.12-.12h.27a.12.12,0,0,1,.12.11v0A.25.25,0,0,1,72.53,48.17Z" transform="translate(-40.39 -5.13)"/><path class="cls-12" d="M74.87,49.34h-1V48.19h1Z" transform="translate(-40.39 -5.13)"/><path class="cls-12" d="M73.63,49.34h0a.19.19,0,0,1-.13-.14v-.84a.17.17,0,0,1,.12-.16h.17v1.14h-.14Z" transform="translate(-40.39 -5.13)"/><path class="cls-12" d="M74.92,49.34h0V48.2h.13a.16.16,0,0,1,.16.14v.86h0a.17.17,0,0,1-.13.14h-.16Z" transform="translate(-40.39 -5.13)"/><path class="cls-12" d="M74.61,48.17h-.09v-.08h0s0,0,0,0h-.26s0,0,0,0v.08h-.08v-.09a.13.13,0,0,1,.12-.12h.27a.14.14,0,0,1,.13.11v.1Z" transform="translate(-40.39 -5.13)"/><path class="cls-12" d="M77,49.34h-1V48.19h1Z" transform="translate(-40.39 -5.13)"/><path class="cls-12" d="M75.72,49.34h0a.17.17,0,0,1-.12-.14,0,0,0,0,1,0,0v-.81a.17.17,0,0,1,.12-.16h.17v1.14h-.13Z" transform="translate(-40.39 -5.13)"/><path class="cls-12" d="M77,49.34h0V48.2h.12a.16.16,0,0,1,.16.14v.86h0a.17.17,0,0,1-.13.14H77Z" transform="translate(-40.39 -5.13)"/><path class="cls-12" d="M76.69,48.17H76.6v-.08h0s0,0,0,0H76.3s0,0,0,0v.08h-.09v-.09A.13.13,0,0,1,76.3,48h.26a.14.14,0,0,1,.13.11v.1Z" transform="translate(-40.39 -5.13)"/><path class="cls-12" d="M79,49.34H78V48.19h1Z" transform="translate(-40.39 -5.13)"/><path class="cls-12" d="M77.8,49.34h0a.17.17,0,0,1-.13-.14s0,0,0,0v-.81a.17.17,0,0,1,.12-.16h.17v1.14H77.8Z" transform="translate(-40.39 -5.13)"/><path class="cls-12" d="M79.09,49.34h0V48.2h.12a.16.16,0,0,1,.16.14v.86h0a.17.17,0,0,1-.12.14h-.16Z" transform="translate(-40.39 -5.13)"/><path class="cls-12" d="M78.77,48.17h-.09v-.08h0s0,0,0,0h-.26a0,0,0,0,0,0,0v.08h-.09v-.09a.13.13,0,0,1,.13-.12h.26a.13.13,0,0,1,.13.11v.1Z" transform="translate(-40.39 -5.13)"/><path class="cls-12" d="M81.11,49.34h-1V48.19h1Z" transform="translate(-40.39 -5.13)"/><path class="cls-12" d="M79.88,49.34h0a.17.17,0,0,1-.13-.14v-.84a.16.16,0,0,1,.11-.16H80v1.14h-.13Z" transform="translate(-40.39 -5.13)"/><path class="cls-12" d="M81.17,49.34h0V48.2h.12a.18.18,0,0,1,.17.14v.86h0a.19.19,0,0,1-.13.14h-.16Z" transform="translate(-40.39 -5.13)"/><path class="cls-12" d="M80.85,48.17h-.08v-.08h0s0,0,0,0h-.26a0,0,0,0,0,0,0v.08h-.09v-.09a.13.13,0,0,1,.13-.12h.26a.13.13,0,0,1,.13.11v.1Z" transform="translate(-40.39 -5.13)"/><path class="cls-12" d="M70.7,50.93h-1V49.77h1Z" transform="translate(-40.39 -5.13)"/><path class="cls-12" d="M69.47,50.93h0a.16.16,0,0,1-.13-.14v-.84a.16.16,0,0,1,.11-.16h.18v1.14h-.14Z" transform="translate(-40.39 -5.13)"/><path class="cls-12" d="M70.76,50.93h0V49.78h.12a.18.18,0,0,1,.17.14v.86h0a.17.17,0,0,1-.13.14h-.16Z" transform="translate(-40.39 -5.13)"/><path class="cls-12" d="M70.44,49.76h-.08v-.09h0a.05.05,0,0,0,0,0h-.26a0,0,0,0,0,0,0v.09h-.09v-.08a.13.13,0,0,1,.13-.13h.27a.13.13,0,0,1,.12.11v.11Z" transform="translate(-40.39 -5.13)"/><path class="cls-12" d="M72.78,50.93h-1V49.77h1Z" transform="translate(-40.39 -5.13)"/><path class="cls-12" d="M71.55,50.93h0a.17.17,0,0,1-.13-.14v-.84a.16.16,0,0,1,.11-.16h.18v1.14h-.14Z" transform="translate(-40.39 -5.13)"/><path class="cls-12" d="M72.84,50.93h0V49.78H73a.17.17,0,0,1,.17.14v.86h0a.17.17,0,0,1-.13.14h-.16Z" transform="translate(-40.39 -5.13)"/><path class="cls-12" d="M72.53,49.76h-.09v-.09h0s0,0,0,0h-.27a0,0,0,0,0,0,0v.09H72s0-.06,0-.08a.12.12,0,0,1,.12-.13h.27a.12.12,0,0,1,.12.11v0A.28.28,0,0,1,72.53,49.76Z" transform="translate(-40.39 -5.13)"/><path class="cls-12" d="M74.87,50.93h-1V49.77h1Z" transform="translate(-40.39 -5.13)"/><path class="cls-12" d="M73.63,50.93h0a.17.17,0,0,1-.13-.14v-.84a.17.17,0,0,1,.12-.16h.17v1.14h-.14Z" transform="translate(-40.39 -5.13)"/><path class="cls-12" d="M74.92,50.93h0V49.78h.13a.16.16,0,0,1,.16.14v.86h0a.16.16,0,0,1-.13.14h-.16Z" transform="translate(-40.39 -5.13)"/><path class="cls-12" d="M74.61,49.76h-.09v-.09h0s0,0,0,0h-.26a0,0,0,0,0,0,0v.09h-.08v-.08a.13.13,0,0,1,.12-.13h.27a.14.14,0,0,1,.13.11v.11Z" transform="translate(-40.39 -5.13)"/><path class="cls-12" d="M77,50.93h-1V49.77h1Z" transform="translate(-40.39 -5.13)"/><path class="cls-12" d="M75.72,50.93h0a.16.16,0,0,1-.12-.14,0,0,0,0,1,0,0v-.81a.17.17,0,0,1,.12-.16h.17v1.14h-.13Z" transform="translate(-40.39 -5.13)"/><path class="cls-12" d="M77,50.93h0V49.78h.12a.16.16,0,0,1,.16.14v.86h0a.16.16,0,0,1-.13.14H77Z" transform="translate(-40.39 -5.13)"/><path class="cls-12" d="M76.69,49.76H76.6v-.09h0s0,0,0,0H76.3a0,0,0,0,0,0,0v.09h-.09v-.08a.13.13,0,0,1,.13-.13h.26a.14.14,0,0,1,.13.11v.11Z" transform="translate(-40.39 -5.13)"/><path class="cls-12" d="M79,50.93H78V49.77h1Z" transform="translate(-40.39 -5.13)"/><path class="cls-12" d="M77.8,50.93h0a.16.16,0,0,1-.13-.14v-.84a.17.17,0,0,1,.12-.16h.17v1.14H77.8Z" transform="translate(-40.39 -5.13)"/><path class="cls-12" d="M79.09,50.93h0V49.78h.12a.16.16,0,0,1,.16.14v.86h0a.16.16,0,0,1-.12.14h-.16Z" transform="translate(-40.39 -5.13)"/><path class="cls-12" d="M78.77,49.76h-.09v-.09h0s0,0,0,0h-.26a0,0,0,0,0,0,0v.09h-.09v-.08a.13.13,0,0,1,.13-.13h.26a.13.13,0,0,1,.13.11v.11Z" transform="translate(-40.39 -5.13)"/><path class="cls-12" d="M81.11,50.93h-1V49.77h1Z" transform="translate(-40.39 -5.13)"/><path class="cls-12" d="M79.88,50.93h0a.16.16,0,0,1-.13-.14v-.84a.16.16,0,0,1,.11-.16H80v1.14h-.13Z" transform="translate(-40.39 -5.13)"/><path class="cls-12" d="M81.17,50.93h0V49.78h.12a.18.18,0,0,1,.17.14v.86h0a.17.17,0,0,1-.13.14h-.16Z" transform="translate(-40.39 -5.13)"/><path class="cls-12" d="M80.85,49.76h-.08v-.09h0s0,0,0,0h-.26a0,0,0,0,0,0,0v.09h-.09v-.08a.13.13,0,0,1,.13-.13h.26a.13.13,0,0,1,.13.11v.11Z" transform="translate(-40.39 -5.13)"/><path class="cls-12" d="M70.7,52.51h-1V51.35h1Z" transform="translate(-40.39 -5.13)"/><path class="cls-12" d="M69.47,52.51h0a.16.16,0,0,1-.13-.14v-.84a.17.17,0,0,1,.11-.16h.18V52.5h-.14Z" transform="translate(-40.39 -5.13)"/><path class="cls-12" d="M70.76,52.51h0V51.36h.12a.18.18,0,0,1,.17.15h0v.84h0a.17.17,0,0,1-.13.14h-.16Z" transform="translate(-40.39 -5.13)"/><path class="cls-12" d="M70.44,51.34h-.08v-.09h0a.05.05,0,0,0,0,0h-.26a0,0,0,0,0,0,0v.09h-.09v-.08a.13.13,0,0,1,.13-.13h.27a.13.13,0,0,1,.12.11v.11Z" transform="translate(-40.39 -5.13)"/><path class="cls-12" d="M72.78,52.51h-1V51.35h1Z" transform="translate(-40.39 -5.13)"/><path class="cls-12" d="M71.55,52.51h0a.17.17,0,0,1-.13-.14v-.84a.17.17,0,0,1,.11-.16h.18V52.5h-.14Z" transform="translate(-40.39 -5.13)"/><path class="cls-12" d="M72.84,52.51h0V51.36H73a.17.17,0,0,1,.17.15h0v.84h0a.17.17,0,0,1-.13.14h-.16Z" transform="translate(-40.39 -5.13)"/><path class="cls-12" d="M72.53,51.34h-.09v-.09h0s0,0,0,0h-.27a0,0,0,0,0,0,0v.09H72a.22.22,0,0,1,0-.08.12.12,0,0,1,.12-.13h.27a.12.12,0,0,1,.12.11v0A.28.28,0,0,1,72.53,51.34Z" transform="translate(-40.39 -5.13)"/></svg>